<?xml version="1.0" encoding="UTF-8"?>
<svg id="Ebene_1" xmlns="http://www.w3.org/2000/svg" version="1.1" viewBox="0 0 467.8 203.6">
  <!-- Generator: Adobe Illustrator 29.5.1, SVG Export Plug-In . SVG Version: 2.1.0 Build 141)  -->
  <defs>
    <style>
      .st0 {
        fill: #e72779;
      }

      .st1 {
        fill: #672161;
      }

      .st2 {
        fill: #333;
      }
    </style>
  </defs>
  <g>
    <path class="st2" d="M428.3,37.5c31.2-.2,58.4,23.1,4.7,41.8,0,0,31-11.6,24.2-26.3-6.7-14.7-62.9-12.7-95.2,10.2-42.5,30.1-23.8,124.8-23.8,124.8,0,0-14.8-66-1.1-104.2,13.7-38.2,69-46.2,91.1-46.3Z"/>
    <path class="st2" d="M407.4,82c36.4,5.2,66.8,43.8-2.4,39.4,0,0,33-3.5,35.1-12.7,2.1-9.2-36.9-30.9-84.7-23.1,0,0,15.7-8.7,52.1-3.5Z"/>
    <path class="st2" d="M288.2,55.7c33.3,15.6,41.6,31.5,41.6,31.5-35.7-32.7-80.2-36-83.5-27.1-3.3,8.9,22.3,29.9,22.3,29.9-60.4-34.3-13.7-49.8,19.6-34.2Z"/>
    <path class="st2" d="M261.5,13.2c-10.7,11.7,6.9,30.6,6.9,30.6-27.2-15.7-16.8-58.2,18.1-30.3,34.9,28,45.3,58,45.3,58-18-27.2-59.5-70-70.3-58.3Z"/>
    <path class="st2" d="M326.3,43.6c-.2,1.5,0,2.9.5,4.2-1.3-1.9-1.9-4.3-1.6-6.8.7-5.6,5.7-9.5,11.3-8.8,2.3.3,4.3,1.3,5.8,2.8,1.8-1.1,4-1.6,6.3-1.3,5.6.7,9.5,5.7,8.8,11.3-.3,2.5-1.5,4.7-3.2,6.2.8-1.1,1.3-2.5,1.5-3.9.6-4.8-2.8-9.1-7.6-9.7-1.3-.2-2.6,0-3.8.4-1,.3-1.8.8-2.6,1.4-.6-.8-1.4-1.5-2.2-2-1-.7-2.2-1.1-3.6-1.3-4.8-.6-9.1,2.8-9.7,7.6Z"/>
  </g>
  <g>
    <path class="st0" d="M8.2,149.7c0-5.1.7-9.5,2.1-13.1,1.4-3.6,3.3-6.3,5.8-8.1,2.5-1.8,5-3.1,7.5-3.8,2.5-.7,5.3-1.1,8.4-1.1,4.6,0,8.8.7,12.9,2v-20.9h7.5v56.1c0,1.4-.2,2.8-.6,4.3-.4,1.5-1.3,3.2-2.5,5.2-1.3,2-3.5,3.7-6.6,4.9s-7,1.9-11.5,1.9-3.8-.2-5.7-.5c-1.8-.3-3.8-1.1-6-2.3-2.1-1.2-4-2.7-5.6-4.6-1.6-1.9-2.9-4.6-4-8-1.1-3.4-1.6-7.4-1.6-12ZM15.7,149.7c0,4.4.5,8,1.4,11,.9,2.9,2.2,5.1,3.9,6.3,1.7,1.3,3.2,2.1,4.8,2.6,1.5.4,3.3.7,5.2.7,9.2,0,13.8-3,13.8-9.1v-28.1c-4.2-1.7-8.5-2.6-12.9-2.6s-9.8,1.5-12.4,4.6c-2.6,3-3.8,7.9-3.8,14.7Z"/>
    <path class="st0" d="M66.6,176.3v-47.8c7.8-3.3,16.2-4.9,25.2-4.9v7.1c-5.7.1-11.6,1-17.7,2.7v42.9h-7.5Z"/>
    <path class="st0" d="M98.6,160.3c0-2.3.4-4.4,1.3-6.3.9-1.8,1.9-3.3,3.2-4.5,1.3-1.1,2.8-2.1,4.8-2.9,1.9-.8,3.6-1.4,5.1-1.8,1.5-.4,3.3-.7,5.3-.9,2-.2,3.5-.3,4.4-.4.9,0,1.9,0,3.1,0l8.3.5c0-4.7-1.3-8.1-3.8-10.1-2.5-2-6.3-3-11.3-3s-10.7.8-15.2,2.5v-7.3c5.1-1.8,10.3-2.7,15.6-2.7s12.8,1.8,16.6,5.5c3.8,3.7,5.7,9,5.7,16.1v15.6c0,3.3-.8,6.1-2.3,8.5-1.5,2.4-3.5,4.1-5.9,5.1-2.4,1-4.7,1.8-6.8,2.2-2.1.4-4.2.6-6.3.6s-3.2-.1-4.9-.3c-1.7-.2-3.6-.7-5.7-1.4-2.1-.7-4-1.7-5.5-2.8-1.6-1.1-2.9-2.8-4-4.9-1.1-2.1-1.7-4.6-1.7-7.4ZM106.1,160.3c0,6.5,4.7,9.7,14.1,9.7h.2c9.2,0,13.8-3.1,13.8-9.4v-9.9c-2.3-.4-5.4-.6-9.2-.6-12.5,0-18.8,3.4-18.8,10.2Z"/>
    <path class="st0" d="M153,150.1c0-5.4.7-10,2.2-13.8,1.5-3.8,3.4-6.5,5.9-8.3,2.5-1.7,4.8-2.9,7-3.6,2.2-.7,4.5-1,7-1,4.4,0,8.1.6,11.1,1.9,3,1.2,5.1,2.8,6.3,4.8,1.2,1.9,2,3.6,2.5,5,.4,1.4.6,2.8.6,4.2v39.1c0,2.3-.3,4.4-1,6.3-.7,1.9-1.7,3.8-3.3,5.7-1.5,1.8-3.8,3.3-7,4.3-3.1,1-6.9,1.5-11.3,1.5s-9.8-.6-14.8-1.9v-7.1c4.4,1.3,9.1,1.9,13.9,1.9s6.1-.3,8.3-.9c2.2-.6,3.9-1.4,4.9-2.5,1-1.1,1.7-2.2,2.1-3.3.4-1.1.6-2.4.6-3.9v-5.2c-3.9,1.3-7.9,1.9-12.2,1.9s-4.5-.2-6.4-.6c-2-.4-4-1.2-6.1-2.3-2.1-1.2-3.9-2.6-5.4-4.5-1.5-1.8-2.7-4.3-3.6-7.3-.9-3-1.4-6.6-1.4-10.6ZM160.5,150.1c0,3.9.4,7.1,1.2,9.6.8,2.5,2,4.4,3.6,5.6,1.6,1.2,3.2,2,4.8,2.4,1.6.4,3.5.6,5.7.6,4.2,0,8.2-.8,12.2-2.4v-26.9c0-5.8-4.4-8.7-13.1-8.7s-3.5.2-5,.7c-1.5.4-3,1.3-4.6,2.5-1.6,1.3-2.8,3.3-3.7,6.1-.9,2.8-1.3,6.3-1.3,10.5Z"/>
    <path class="st0" d="M208.7,163.8c-1.5-3.7-2.2-8.2-2.2-13.5s.7-9.8,2.2-13.5c1.5-3.7,3.4-6.5,5.9-8.3,2.5-1.8,5-3.1,7.6-3.9,2.6-.8,5.4-1.1,8.6-1.1s6,.4,8.6,1.1c2.6.8,5.2,2.1,7.7,3.9,2.5,1.8,4.5,4.6,5.9,8.3,1.5,3.7,2.2,8.2,2.2,13.5s-.7,9.8-2.2,13.5c-1.5,3.7-3.4,6.5-5.9,8.3-2.5,1.8-5.1,3.1-7.7,3.9-2.6.8-5.5,1.1-8.6,1.1s-6-.4-8.6-1.1c-2.6-.8-5.1-2.1-7.6-3.9-2.5-1.8-4.5-4.6-5.9-8.3ZM218,135.1c-2.7,3.2-4,8.2-4,15.2s1.3,12,4,15.2c2.7,3.2,7,4.8,12.8,4.8s10.2-1.6,12.9-4.7c2.7-3.1,4-8.2,4-15.2s-1.3-12.1-4-15.2c-2.7-3.1-7-4.7-12.9-4.7s-10.2,1.6-12.8,4.8Z"/>
    <path class="st0" d="M267.2,176.3v-47.7c6.8-3.4,14.1-5.1,21.9-5.1s11.6,1.7,15.2,5c3.6,3.3,5.4,8,5.4,14v33.8h-7.5v-33.8c0-1.5-.2-2.7-.5-3.9-.3-1.1-.9-2.3-1.8-3.6-.9-1.3-2.3-2.3-4.3-3-2-.7-4.4-1-7.4-1-4.4,0-8.9.7-13.6,2.1v43.2h-7.5Z"/>
    <path class="st1" d="M354.2,176.3v-71.6h7.5v71.6h-7.5Z"/>
    <path class="st1" d="M372.5,124.4h8l14.8,41,15-41h8l-21.2,56.9c-3.7,10-9.1,15-16.3,15s-3.3-.3-4.9-.9v-6.8c1.4.6,2.9.9,4.5.9s2.6-.5,3.9-1.4c1.3-1,2.3-2.1,3.2-3.5.8-1.4,1.6-2.7,2.3-4.1.7-1.4,1.2-2.6,1.4-3.6l.5-1.4-19.1-51Z"/>
  </g>
</svg>